<svg width="164" height="70" viewBox="0 0 164 70" fill="none" xmlns="http://www.w3.org/2000/svg">
<path d="M28.157 23.8449C28.7433 23.8449 29.2708 23.9658 29.7398 24.2075C30.2255 24.429 30.6693 24.6808 31.0713 24.9628C31.49 25.2448 31.8836 25.5066 32.252 25.7483C32.6204 25.9699 32.9973 26.0806 33.3825 26.0806C33.684 26.0605 34.0273 26.0101 34.4125 25.9296C34.7475 25.849 35.1327 25.7282 35.5681 25.567C36.0203 25.3857 36.5228 25.1239 37.0755 24.7815C36.5228 25.426 36.0706 25.9699 35.7189 26.413C35.3839 26.8359 35.1243 27.1884 34.9401 27.4704C34.7224 27.7927 34.5633 28.0444 34.4628 28.2257C34.3623 28.4473 34.2116 28.7796 34.0106 29.2227C33.8263 29.6255 33.5751 30.1694 33.2569 30.8542C32.9387 31.5189 32.5367 32.3951 32.0511 33.4827C32.0511 32.0929 31.9338 31.0153 31.6993 30.2499C31.4816 29.4846 31.2387 28.9004 30.9707 28.4976C30.6525 28.0344 30.2924 27.7423 29.8905 27.6215C29.522 27.561 29.1536 27.6416 28.7851 27.8632C28.4166 28.0646 28.0482 28.3667 27.6797 28.7695C27.328 29.1724 26.9846 29.6558 26.6497 30.2197C26.3315 30.7635 26.0384 31.3376 25.7704 31.9418C25.5192 32.5461 25.3098 33.1604 25.1423 33.7848C24.9749 34.3891 24.866 34.953 24.8158 35.4767C24.7655 35.94 24.7571 36.4838 24.7906 37.1081C24.8241 37.7124 24.8995 38.3368 25.0167 38.9813C25.134 39.6057 25.2847 40.22 25.4689 40.8242C25.6532 41.4286 25.8793 41.9724 26.1472 42.4558C26.432 42.919 26.7502 43.3017 27.1019 43.6038C27.4536 43.8858 27.8556 44.0167 28.3078 43.9966C28.8102 43.9563 29.3043 43.775 29.79 43.4527C30.2087 43.1909 30.6358 42.7881 31.0713 42.2443C31.5067 41.6803 31.8836 40.8847 32.2018 39.8574L35.9199 40.6732C34.848 42.2443 33.8012 43.4226 32.7796 44.208C31.7746 44.9936 30.8703 45.5474 30.0663 45.8697C29.1284 46.2323 28.2408 46.4035 27.4034 46.3834C26.3482 46.2423 25.3601 45.8597 24.4389 45.2353C23.5178 44.6109 22.7222 43.8556 22.0523 42.9693C21.3991 42.063 20.8883 41.076 20.5198 40.0085C20.1514 38.941 19.9922 37.8937 20.0425 36.8665C20.076 36.1816 20.1932 35.386 20.3942 34.4796C20.5952 33.5532 20.8632 32.6065 21.1981 31.6397C21.5498 30.6729 21.9685 29.7263 22.4543 28.7997C22.9399 27.8732 23.4759 27.0474 24.0621 26.3223C24.6483 25.5771 25.2847 24.9829 25.9714 24.5398C26.6748 24.0765 27.4034 23.8449 28.157 23.8449ZM36.5284 32.667L41.1509 32.7274C40.8829 33.956 40.682 35.0033 40.548 35.8694C40.4307 36.7355 40.3554 37.4606 40.3219 38.0448C40.2549 38.7094 40.2382 39.2734 40.2717 39.7366C40.3219 40.1596 40.4057 40.6127 40.5229 41.0962C40.6234 41.499 40.7741 41.9623 40.975 42.4859C41.1761 43.0096 41.444 43.5333 41.779 44.057C41.578 43.9764 41.3603 43.916 41.1258 43.8757C40.8914 43.8354 40.6736 43.8052 40.4726 43.7851C40.2382 43.7649 40.0037 43.7649 39.7692 43.7851C39.5347 43.8052 39.2751 43.8354 38.9904 43.8757C38.7559 43.916 38.4712 43.9664 38.1363 44.0268C37.8013 44.0872 37.4495 44.1678 37.0811 44.2685C37.3323 43.3621 37.5249 42.5766 37.6589 41.9119C37.8097 41.2472 37.9185 40.6934 37.9855 40.2503C38.0525 39.7266 38.0944 39.3036 38.1111 38.9813C38.1111 38.5785 38.1111 38.1253 38.1111 37.6218C38.1111 37.0981 38.1111 36.5946 38.1111 36.1112C38.1111 35.6278 38.1027 35.2048 38.086 34.8422C38.0692 34.4595 38.0358 34.2178 37.9855 34.1172L37.7343 33.815C37.6338 33.7143 37.483 33.5733 37.2821 33.392C37.0979 33.1906 36.8466 32.9489 36.5284 32.667ZM38.3121 28.0142C38.6638 27.7927 39.0156 27.7322 39.3672 27.8329C39.7357 27.9337 40.0204 28.125 40.2214 28.407C40.4224 28.689 40.4894 29.0213 40.4224 29.404C40.3721 29.7867 40.1042 30.1593 39.6185 30.5218C39.1328 30.8643 38.7057 30.9851 38.3372 30.8844C37.9688 30.7837 37.7091 30.5722 37.5584 30.2499C37.4077 29.9277 37.3826 29.555 37.483 29.1321C37.5836 28.689 37.8599 28.3163 38.3121 28.0142ZM43.8195 42.8485C43.9368 42.1839 44.0205 41.5997 44.0707 41.0962C44.1377 40.5725 44.1879 40.1395 44.2215 39.797C44.255 39.3942 44.2717 39.0518 44.2717 38.7698C44.255 38.4274 44.2382 38.0246 44.2215 37.5614C44.2215 37.078 44.2047 36.6046 44.1712 36.1413C44.1545 35.6579 44.1293 35.235 44.0958 34.8725C44.0624 34.4897 44.0205 34.2178 43.9702 34.0567C43.9032 33.8955 43.8111 33.7243 43.6939 33.5431C43.4594 33.2006 43.116 32.8683 42.6639 32.5461C43.0491 32.4453 43.3757 32.3648 43.6436 32.3044C43.9284 32.2238 44.1629 32.1533 44.3471 32.0929C44.548 32.0123 44.7239 31.9418 44.8747 31.8814C45.0086 31.821 45.1677 31.7606 45.3519 31.7002C45.5027 31.6599 45.6869 31.6095 45.9047 31.5491C46.1224 31.4886 46.3736 31.4181 46.6584 31.3376L46.583 34.0869C47.1189 33.3216 47.6632 32.7475 48.216 32.3648C48.7686 31.9821 49.2879 31.7102 49.7735 31.5491C50.3262 31.3477 50.8705 31.2469 51.4065 31.2469C52.0764 31.2872 52.6961 31.4181 53.2656 31.6397C53.8518 31.8613 54.3542 32.1231 54.7729 32.4252C55.2083 32.7072 55.5601 33.0093 55.828 33.3316C56.096 33.6539 56.2551 33.9358 56.3054 34.1776C56.5063 34.963 56.5566 35.6882 56.4561 36.3528C56.3556 36.9974 56.2216 37.6318 56.0541 38.2563C55.9034 38.8605 55.7694 39.4647 55.6522 40.0689C55.5517 40.6732 55.5936 41.3278 55.7778 42.0328C55.8448 42.214 55.9118 42.3953 55.9787 42.5766C56.0458 42.7377 56.1295 42.8989 56.23 43.06C56.3305 43.2211 56.4477 43.3521 56.5817 43.4527C56.3975 43.4326 56.2133 43.4226 56.029 43.4226C55.8448 43.4024 55.6773 43.3823 55.5265 43.3621C55.3423 43.3419 55.1748 43.3218 55.0241 43.3017C54.8566 43.2815 54.6305 43.2715 54.3458 43.2715C53.8601 43.2715 53.1064 43.3017 52.0848 43.3621C52.2356 42.9392 52.3527 42.5866 52.4365 42.3047C52.537 42.0025 52.6207 41.7609 52.6877 41.5795C52.7547 41.358 52.8049 41.1868 52.8385 41.066C53.0395 40.4819 53.1567 39.8172 53.1902 39.072C53.2404 38.3267 53.1985 37.5714 53.0646 36.8061C53.0143 36.5442 52.9306 36.232 52.8133 35.8694C52.6961 35.5069 52.537 35.1544 52.336 34.812C52.1518 34.4696 51.9257 34.1776 51.6577 33.9358C51.4065 33.6942 51.1134 33.5532 50.7784 33.5128C50.4434 33.4726 50.0666 33.5733 49.6479 33.815C49.246 34.0567 48.8105 34.4998 48.3415 35.1444C47.9898 35.6882 47.7135 36.3528 47.5125 37.1384C47.3283 37.803 47.2027 38.6389 47.1356 39.646C47.0687 40.6329 47.1692 41.791 47.4371 43.1204C47.2027 43.0801 46.9849 43.06 46.784 43.06C46.583 43.0399 46.4155 43.0197 46.2815 42.9996C46.114 42.9795 45.9633 42.9593 45.8293 42.9392C45.6786 42.9392 45.5111 42.9291 45.3269 42.9089C45.1594 42.9089 44.95 42.9089 44.6988 42.9089C44.4475 42.8888 44.1545 42.8686 43.8195 42.8485ZM65.0033 41.3076C65.4723 41.3076 65.9077 41.2472 66.3097 41.1264C66.6446 41.0257 66.9628 40.8645 67.2643 40.643C67.5825 40.4013 67.7919 40.0488 67.8924 39.5855C68.2274 39.6661 68.5121 39.7366 68.7465 39.797C68.981 39.8373 69.182 39.8776 69.3495 39.9179C69.5337 39.9784 69.6928 40.0186 69.8268 40.0388C69.9608 40.0791 70.1199 40.1193 70.3041 40.1596C70.4716 40.1999 70.6726 40.2503 70.9071 40.3107C71.1583 40.351 71.4514 40.4114 71.7864 40.4919C71.5352 40.4517 71.2756 40.4819 71.0076 40.5826C70.7563 40.6833 70.5135 40.7941 70.2791 40.9149C70.0111 41.0559 69.7598 41.2271 69.5254 41.4286C69.3746 41.5494 69.1987 41.7306 68.9978 41.9724C68.8136 42.214 68.5456 42.4457 68.1939 42.6673C67.8422 42.8888 67.3732 43.0801 66.787 43.2412C66.2176 43.3823 65.4806 43.4326 64.5762 43.3923C63.4876 43.3521 62.5748 43.1204 61.8379 42.6974C61.101 42.2543 60.5064 41.7206 60.0542 41.0962C59.602 40.4517 59.2754 39.7568 59.0744 39.0116C58.8734 38.2663 58.7646 37.5714 58.7478 36.9269C58.7311 36.2824 58.8902 35.6076 59.2251 34.9026C59.5601 34.1977 60.0291 33.5532 60.632 32.969C61.2517 32.3849 61.997 31.9116 62.8679 31.5491C63.7388 31.1664 64.6934 30.975 65.7319 30.975C66.3348 30.975 66.8875 31.0657 67.39 31.2469C67.9091 31.4081 68.3781 31.6296 68.7968 31.9116C69.2323 32.1936 69.6091 32.5159 69.9273 32.8784C70.2455 33.2208 70.5135 33.5733 70.7313 33.9358C70.949 34.3185 71.1332 34.7214 71.2839 35.1444C71.4179 35.5069 71.5268 35.9198 71.6105 36.3831C71.6942 36.8463 71.7194 37.3196 71.6859 37.803C70.413 37.8433 69.383 37.8736 68.5958 37.8937C67.8254 37.9138 67.2225 37.9238 66.787 37.9238H65.6565H64.8023C64.5009 37.9238 64.1073 37.934 63.6215 37.9541C63.1359 37.9742 62.5413 38.0045 61.8379 38.0448C61.9216 38.8504 62.131 39.4748 62.466 39.9179C62.8176 40.3408 63.1861 40.6631 63.5713 40.8847C64.0068 41.1264 64.4841 41.2674 65.0033 41.3076ZM62.7423 35.8694C63.2783 35.9097 63.7221 35.94 64.0738 35.9601C64.4423 35.9802 64.7437 36.0004 64.9782 36.0205C65.2294 36.0406 65.4304 36.0508 65.5811 36.0508H66.2092C66.6279 36.0508 67.4067 36.0205 68.5456 35.9601C68.4954 35.0738 68.3362 34.3991 68.0682 33.9358C67.817 33.4726 67.549 33.1302 67.2643 32.9086C66.9294 32.667 66.5609 32.5259 66.1589 32.4856C65.0703 32.5058 64.258 32.7777 63.7221 33.3014C63.2029 33.8251 62.8763 34.6811 62.7423 35.8694ZM82.0922 23.3917C82.9966 23.432 83.9094 23.6334 84.8305 23.996C85.7684 24.3384 86.631 24.9023 87.4181 25.6879C88.2053 26.4532 88.8752 27.4503 89.4279 28.6789C89.9806 29.8874 90.3239 31.3678 90.4579 33.1201C90.5752 34.5502 90.4245 35.9701 90.0057 37.38C89.6038 38.7698 89.0427 40.0488 88.3226 41.2171C87.6023 42.3853 86.7733 43.3823 85.8354 44.208C84.8975 45.0137 83.9596 45.5474 83.0217 45.8093C82.4522 45.9704 81.8242 45.9906 81.1375 45.8697C80.4676 45.7288 79.7809 45.477 79.0775 45.1144C78.3908 44.7317 77.7125 44.2483 77.0426 43.6642C76.3893 43.0801 75.7948 42.4155 75.2589 41.6702C74.7229 40.9048 74.2707 40.0791 73.9023 39.1928C73.5505 38.3066 73.3328 37.38 73.2491 36.4132C73.1653 35.6076 73.1569 34.7214 73.224 33.7546C73.3077 32.7676 73.4668 31.7907 73.7013 30.824C73.9525 29.837 74.2959 28.8904 74.7313 27.984C75.1835 27.0575 75.7529 26.2518 76.4397 25.567C77.1263 24.8621 77.9302 24.3182 78.8514 23.9355C79.7892 23.5327 80.8696 23.3514 82.0922 23.3917ZM77.5952 35.6278C77.3608 37.7829 77.5283 39.5151 78.0977 40.8242C78.6839 42.1335 79.5631 42.9291 80.7356 43.2111C81.305 43.3521 81.8493 43.2111 82.3685 42.7881C82.9044 42.345 83.3902 41.7105 83.8256 40.8847C84.2611 40.0589 84.6379 39.0921 84.9561 37.9843C85.2743 36.8765 85.5089 35.7183 85.6596 34.5099C85.8103 33.3014 85.8187 32.2137 85.6846 31.2469C85.5674 30.26 85.3581 29.4241 85.0566 28.7393C84.7552 28.0344 84.3867 27.4905 83.9513 27.1079C83.5325 26.7252 83.0971 26.5137 82.6448 26.4734C81.8577 26.413 81.171 26.6647 80.5848 27.2287C79.9986 27.7725 79.5045 28.4875 79.1026 29.3738C78.7006 30.26 78.3741 31.257 78.1228 32.3648C77.8884 33.4726 77.7125 34.5603 77.5952 35.6278ZM92.5239 42.8485C92.6411 42.1839 92.7247 41.5997 92.7747 41.0962C92.8419 40.5725 92.8919 40.1395 92.9255 39.797C92.9591 39.3942 92.9755 39.0518 92.9755 38.7698C92.9591 38.4274 92.9419 38.0246 92.9255 37.5614C92.9255 37.078 92.909 36.6046 92.8755 36.1413C92.8583 35.6579 92.8333 35.235 92.7997 34.8725C92.7661 34.4897 92.7247 34.2178 92.6747 34.0567C92.6075 33.8955 92.5153 33.7243 92.3981 33.5431C92.1637 33.2006 91.82 32.8683 91.3677 32.5461C91.7528 32.4453 92.0794 32.3648 92.3474 32.3044C92.6325 32.2238 92.8669 32.1533 93.0512 32.0929C93.2521 32.0123 93.4278 31.9418 93.5786 31.8814C93.713 31.821 93.8716 31.7606 94.056 31.7002C94.2068 31.6599 94.3911 31.6095 94.6091 31.5491C94.8263 31.4886 95.0778 31.4181 95.3623 31.3376L95.2872 34.0869C95.8232 33.3216 96.367 32.7475 96.9201 32.3648C97.4724 31.9821 97.992 31.7102 98.4779 31.5491C99.0303 31.3477 99.5748 31.2469 100.111 31.2469C100.78 31.2872 101.4 31.4181 101.969 31.6397C102.556 31.8613 103.058 32.1231 103.477 32.4252C103.912 32.7072 104.264 33.0093 104.532 33.3316C104.8 33.6539 104.959 33.9358 105.009 34.1776C105.21 34.963 105.261 35.6882 105.16 36.3528C105.06 36.9974 104.926 37.6318 104.758 38.2563C104.608 38.8605 104.473 39.4647 104.356 40.0689C104.256 40.6732 104.298 41.3278 104.482 42.0328C104.549 42.214 104.616 42.3953 104.683 42.5766C104.75 42.7377 104.833 42.8989 104.934 43.06C105.034 43.2211 105.151 43.3521 105.286 43.4527C105.101 43.4326 104.917 43.4226 104.733 43.4226C104.549 43.4024 104.381 43.3823 104.23 43.3621C104.047 43.3419 103.879 43.3218 103.728 43.3017C103.561 43.2815 103.334 43.2715 103.05 43.2715C102.564 43.2715 101.811 43.3017 100.789 43.3621C100.94 42.9392 101.057 42.5866 101.14 42.3047C101.241 42.0025 101.325 41.7609 101.392 41.5795C101.458 41.358 101.509 41.1868 101.543 41.066C101.744 40.4819 101.861 39.8172 101.894 39.072C101.944 38.3267 101.903 37.5714 101.769 36.8061C101.719 36.5442 101.635 36.232 101.517 35.8694C101.4 35.5069 101.241 35.1544 101.04 34.812C100.856 34.4696 100.63 34.1776 100.362 33.9358C100.111 33.6942 99.8177 33.5532 99.4826 33.5128C99.1475 33.4726 98.7709 33.5733 98.3521 33.815C97.9498 34.0567 97.5146 34.4998 97.0458 35.1444C96.6935 35.6882 96.4177 36.3528 96.2169 37.1384C96.0325 37.803 95.9068 38.6389 95.8396 39.646C95.7724 40.6329 95.8732 41.791 96.1412 43.1204C95.9068 43.0801 95.6888 43.06 95.488 43.06C95.2872 43.0399 95.1193 43.0197 94.9857 42.9996C94.8184 42.9795 94.6677 42.9593 94.5333 42.9392C94.3825 42.9392 94.2153 42.9291 94.031 42.9089C93.8637 42.9089 93.6544 42.9089 93.4028 42.9089C93.1513 42.8888 92.8583 42.8686 92.5239 42.8485ZM113.707 41.3076C114.176 41.3076 114.612 41.2472 115.014 41.1264C115.349 41.0257 115.667 40.8645 115.968 40.643C116.286 40.4013 116.496 40.0488 116.596 39.5855C116.932 39.6661 117.216 39.7366 117.45 39.797C117.685 39.8373 117.886 39.8776 118.053 39.9179C118.238 39.9784 118.397 40.0186 118.531 40.0388C118.665 40.0791 118.824 40.1193 119.008 40.1596C119.175 40.1999 119.377 40.2503 119.611 40.3107C119.862 40.351 120.156 40.4114 120.49 40.4919C120.239 40.4517 119.979 40.4819 119.711 40.5826C119.461 40.6833 119.218 40.7941 118.983 40.9149C118.715 41.0559 118.464 41.2271 118.229 41.4286C118.078 41.5494 117.903 41.7306 117.702 41.9724C117.518 42.214 117.25 42.4457 116.898 42.6673C116.546 42.8888 116.078 43.0801 115.491 43.2412C114.921 43.3823 114.185 43.4326 113.28 43.3923C112.192 43.3521 111.279 43.1204 110.542 42.6974C109.805 42.2543 109.21 41.7206 108.758 41.0962C108.306 40.4517 107.979 39.7568 107.778 39.0116C107.578 38.2663 107.469 37.5714 107.452 36.9269C107.435 36.2824 107.594 35.6076 107.929 34.9026C108.264 34.1977 108.733 33.5532 109.336 32.969C109.956 32.3849 110.701 31.9116 111.572 31.5491C112.443 31.1664 113.398 30.975 114.436 30.975C115.039 30.975 115.592 31.0657 116.094 31.2469C116.614 31.4081 117.082 31.6296 117.501 31.9116C117.936 32.1936 118.313 32.5159 118.632 32.8784C118.95 33.2208 119.218 33.5733 119.435 33.9358C119.653 34.3185 119.837 34.7214 119.988 35.1444C120.122 35.5069 120.231 35.9198 120.314 36.3831C120.398 36.8463 120.424 37.3196 120.39 37.803C119.117 37.8433 118.087 37.8736 117.3 37.8937C116.529 37.9138 115.927 37.9238 115.491 37.9238H114.36H113.507C113.205 37.9238 112.811 37.934 112.326 37.9541C111.84 37.9742 111.246 38.0045 110.542 38.0448C110.626 38.8504 110.835 39.4748 111.17 39.9179C111.521 40.3408 111.89 40.6631 112.275 40.8847C112.711 41.1264 113.189 41.2674 113.707 41.3076ZM111.446 35.8694C111.982 35.9097 112.426 35.94 112.778 35.9601C113.146 35.9802 113.448 36.0004 113.682 36.0205C113.934 36.0406 114.135 36.0508 114.285 36.0508H114.914C115.332 36.0508 116.11 36.0205 117.25 35.9601C117.2 35.0738 117.04 34.3991 116.772 33.9358C116.521 33.4726 116.253 33.1302 115.968 32.9086C115.633 32.667 115.265 32.5259 114.863 32.4856C113.774 32.5058 112.962 32.7777 112.426 33.3014C111.907 33.8251 111.581 34.6811 111.446 35.8694ZM122.405 24.8721C122.723 25.1541 123.042 25.3656 123.36 25.5066C123.695 25.6274 123.997 25.708 124.265 25.7483C124.566 25.8087 124.867 25.8188 125.169 25.7785C125.454 25.7382 125.747 25.6174 126.048 25.416C126.349 25.2145 126.701 25.0031 127.103 24.7815C127.505 24.5599 127.974 24.3686 128.51 24.2075C129.063 24.0262 129.724 23.9355 130.495 23.9355C130.83 23.9355 131.181 24.0161 131.55 24.1772C131.935 24.3384 132.304 24.5499 132.655 24.8117C133.007 25.0534 133.325 25.3253 133.61 25.6274C133.912 25.9296 134.138 26.2317 134.288 26.5338C134.456 26.8359 134.573 27.3294 134.64 28.0142C134.707 28.6789 134.732 29.404 134.716 30.1895C134.699 30.975 134.64 31.7505 134.539 32.5159C134.456 33.2812 134.33 33.9057 134.163 34.3891C133.962 34.812 133.577 35.3559 133.007 36.0205C132.521 36.5845 131.793 37.3096 130.821 38.1958C129.85 39.082 128.544 40.1395 126.902 41.3681C127.873 41.3479 128.686 41.3178 129.339 41.2775C130.009 41.2171 130.553 41.1566 130.972 41.0962C131.458 41.0156 131.843 40.935 132.127 40.8545C132.379 40.7337 132.647 40.5625 132.931 40.3408C133.166 40.1395 133.417 39.8776 133.685 39.5554C133.97 39.2331 134.246 38.8101 134.514 38.2864C134.565 39.374 134.615 40.2301 134.665 40.8545C134.699 41.2171 134.724 41.5293 134.741 41.791C134.757 42.0328 134.774 42.3147 134.791 42.637C134.807 42.919 134.816 43.2412 134.816 43.6038C134.833 43.9664 134.858 44.3491 134.891 44.7519C134.054 44.4901 133.291 44.2886 132.605 44.1476C131.918 43.9865 131.332 43.8757 130.846 43.8153C130.277 43.7348 129.766 43.6945 129.314 43.6945C128.845 43.7146 128.326 43.7649 127.756 43.8455C127.254 43.9261 126.651 44.0469 125.948 44.208C125.261 44.3491 124.482 44.5605 123.611 44.8425C123.544 44.621 123.486 44.3994 123.435 44.1779C123.385 43.9361 123.343 43.7045 123.31 43.483C123.259 43.2412 123.218 42.9996 123.184 42.7578C123.151 42.5162 123.117 42.2846 123.084 42.063C123.05 41.8616 123.025 41.6501 123.008 41.4286C122.991 41.207 122.975 40.9955 122.958 40.7941C124.298 39.7669 125.387 38.8404 126.224 38.0145C127.062 37.1685 127.723 36.4535 128.209 35.8694C128.762 35.1846 129.18 34.5603 129.465 33.9962C129.749 33.3115 129.984 32.5561 130.168 31.7303C130.352 30.9045 130.411 30.1392 130.344 29.4342C130.294 28.7292 130.093 28.1552 129.741 27.7121C129.389 27.2488 128.828 27.0474 128.058 27.1079C127.555 27.1481 127.078 27.3596 126.626 27.7423C126.191 28.125 125.788 28.5883 125.42 29.1321C125.051 29.6759 124.725 30.26 124.441 30.8844C124.155 31.4886 123.912 32.0627 123.712 32.6065C123.527 33.1504 123.376 33.6035 123.259 33.9661C123.159 34.3287 123.109 34.5199 123.109 34.5401C123.092 34.5804 123.067 34.4293 123.033 34.0869C123.016 33.7445 122.991 33.3216 122.958 32.818C122.941 32.2943 122.916 31.7505 122.883 31.1865C122.849 30.6226 122.816 30.1492 122.782 29.7665C122.766 29.4644 122.74 29.0717 122.707 28.5883C122.657 27.8027 122.556 26.564 122.405 24.8721ZM137.283 27.4402C137.87 27.2186 138.347 27.0373 138.715 26.8964C139.084 26.7352 139.386 26.6043 139.62 26.5036C139.888 26.3828 140.089 26.272 140.223 26.1713L140.825 25.8087C141.06 25.6677 141.361 25.4865 141.73 25.2649C142.099 25.0232 142.576 24.7211 143.162 24.3585C143.028 25.1239 142.928 25.849 142.861 26.5338C142.811 27.1985 142.768 27.7927 142.735 28.3163C142.685 28.9206 142.66 29.4745 142.66 29.978C142.643 30.401 142.618 30.965 142.584 31.6699C142.568 32.3749 142.543 33.1402 142.509 33.9661C142.475 34.7919 142.442 35.6378 142.408 36.5039C142.375 37.37 142.35 38.1857 142.333 38.9511C142.333 39.6963 142.341 40.3408 142.358 40.8847C142.392 41.4286 142.45 41.8012 142.534 42.0025C142.618 42.2443 142.726 42.4759 142.861 42.6974C142.978 42.8989 143.112 43.1305 143.262 43.3923C143.43 43.6341 143.631 43.8757 143.865 44.1174C143.48 44.2182 143.12 44.3087 142.785 44.3894C142.45 44.4498 142.157 44.5001 141.906 44.5404C141.604 44.6008 141.336 44.6512 141.102 44.6914C140.85 44.7116 140.507 44.762 140.072 44.8425C139.704 44.9029 139.235 44.9835 138.665 45.0842C138.096 45.1648 137.393 45.2554 136.555 45.3562C136.99 45.0339 137.334 44.7217 137.585 44.4195C137.853 44.1174 138.054 43.8556 138.188 43.6341C138.339 43.3722 138.431 43.1204 138.464 42.8787C138.481 42.7176 138.506 42.2846 138.539 41.5795C138.589 40.8545 138.632 40.0085 138.665 39.0417C138.715 38.0548 138.757 37.0074 138.791 35.8997C138.841 34.7717 138.875 33.7243 138.891 32.7575C138.908 31.7907 138.916 30.965 138.916 30.2801C138.916 29.5953 138.891 29.1824 138.841 29.0414C138.774 28.9004 138.674 28.7393 138.539 28.558C138.422 28.3969 138.263 28.2257 138.062 28.0444C137.878 27.8632 137.618 27.6617 137.283 27.4402Z" fill="#394BA7"/>
</svg>
