<svg width="177" height="28" viewBox="0 0 177 28" fill="none" xmlns="http://www.w3.org/2000/svg">
<path d="M21 17V21C21 21.5304 20.7893 22.0391 20.4142 22.4142C20.0391 22.7893 19.5304 23 19 23H5C4.46957 23 3.96086 22.7893 3.58579 22.4142C3.21071 22.0391 3 21.5304 3 21V17" stroke="#1D4ED8" stroke-width="2" stroke-linecap="round" stroke-linejoin="round"/>
<path d="M7 12L12 17L17 12" stroke="#1D4ED8" stroke-width="2" stroke-linecap="round" stroke-linejoin="round"/>
<path d="M12 17V5" stroke="#1D4ED8" stroke-width="2" stroke-linecap="round" stroke-linejoin="round"/>
<path d="M71.248 20V8.72H75.344C76.6347 8.72 77.7227 8.944 78.608 9.392C79.504 9.82933 80.1813 10.4693 80.64 11.312C81.0987 12.144 81.328 13.1573 81.328 14.352C81.328 15.536 81.0987 16.5493 80.64 17.392C80.1813 18.2347 79.504 18.88 78.608 19.328C77.7227 19.776 76.6347 20 75.344 20H71.248ZM73.312 18.288H75.216C76.5813 18.288 77.5947 17.9627 78.256 17.312C78.9173 16.6613 79.248 15.6747 79.248 14.352C79.248 13.0187 78.9173 12.032 78.256 11.392C77.5947 10.7413 76.5813 10.416 75.216 10.416H73.312V18.288ZM87.6735 20.16C86.8415 20.16 86.1215 19.9893 85.5135 19.648C84.9055 19.3067 84.4308 18.8213 84.0895 18.192C83.7588 17.5627 83.5935 16.816 83.5935 15.952C83.5935 15.088 83.7588 14.3467 84.0895 13.728C84.4308 13.0987 84.9055 12.6133 85.5135 12.272C86.1215 11.9307 86.8415 11.76 87.6735 11.76C88.5055 11.76 89.2255 11.9307 89.8335 12.272C90.4522 12.6133 90.9268 13.0987 91.2575 13.728C91.5988 14.3467 91.7695 15.088 91.7695 15.952C91.7695 16.816 91.5988 17.5627 91.2575 18.192C90.9268 18.8213 90.4522 19.3067 89.8335 19.648C89.2255 19.9893 88.5055 20.16 87.6735 20.16ZM87.6735 18.624C88.3028 18.624 88.8042 18.4053 89.1775 17.968C89.5508 17.52 89.7375 16.848 89.7375 15.952C89.7375 15.056 89.5508 14.3893 89.1775 13.952C88.8042 13.5147 88.3028 13.296 87.6735 13.296C87.0442 13.296 86.5428 13.5147 86.1695 13.952C85.7962 14.3893 85.6095 15.056 85.6095 15.952C85.6095 16.848 85.7962 17.52 86.1695 17.968C86.5428 18.4053 87.0442 18.624 87.6735 18.624ZM96.328 20L93.176 11.92H95.24L97.512 18.208H97.096L99.4 11.92H100.824L103.112 18.208H102.744L105 11.92H106.952L103.8 20H102.04L99.624 13.568H100.472L98.104 20H96.328ZM108.963 20V13.936C108.963 13.6053 108.952 13.2693 108.931 12.928C108.91 12.5867 108.878 12.2507 108.835 11.92H110.771L110.931 13.52H110.739C110.995 12.9547 111.374 12.5227 111.875 12.224C112.376 11.9147 112.958 11.76 113.619 11.76C114.568 11.76 115.283 12.0267 115.763 12.56C116.243 13.0933 116.483 13.9253 116.483 15.056V20H114.483V15.152C114.483 14.5013 114.355 14.0373 114.099 13.76C113.854 13.472 113.48 13.328 112.979 13.328C112.36 13.328 111.87 13.52 111.507 13.904C111.144 14.288 110.963 14.8 110.963 15.44V20H108.963ZM119.354 20V8.224H121.354V20H119.354ZM127.924 20.16C127.092 20.16 126.372 19.9893 125.764 19.648C125.156 19.3067 124.681 18.8213 124.34 18.192C124.009 17.5627 123.844 16.816 123.844 15.952C123.844 15.088 124.009 14.3467 124.34 13.728C124.681 13.0987 125.156 12.6133 125.764 12.272C126.372 11.9307 127.092 11.76 127.924 11.76C128.756 11.76 129.476 11.9307 130.084 12.272C130.702 12.6133 131.177 13.0987 131.508 13.728C131.849 14.3467 132.02 15.088 132.02 15.952C132.02 16.816 131.849 17.5627 131.508 18.192C131.177 18.8213 130.702 19.3067 130.084 19.648C129.476 19.9893 128.756 20.16 127.924 20.16ZM127.924 18.624C128.553 18.624 129.054 18.4053 129.428 17.968C129.801 17.52 129.988 16.848 129.988 15.952C129.988 15.056 129.801 14.3893 129.428 13.952C129.054 13.5147 128.553 13.296 127.924 13.296C127.294 13.296 126.793 13.5147 126.42 13.952C126.046 14.3893 125.86 15.056 125.86 15.952C125.86 16.848 126.046 17.52 126.42 17.968C126.793 18.4053 127.294 18.624 127.924 18.624ZM137.614 20.16C136.91 20.16 136.292 19.9947 135.758 19.664C135.225 19.3227 134.809 18.8373 134.51 18.208C134.212 17.5787 134.062 16.8267 134.062 15.952C134.062 15.0773 134.212 14.3307 134.51 13.712C134.809 13.0827 135.225 12.6027 135.758 12.272C136.292 11.9307 136.91 11.76 137.614 11.76C138.297 11.76 138.894 11.9307 139.406 12.272C139.929 12.6027 140.276 13.0507 140.446 13.616H140.27L140.446 11.92H142.366C142.334 12.2507 142.302 12.5867 142.27 12.928C142.249 13.2693 142.238 13.6053 142.238 13.936V20H140.254L140.238 18.336H140.43C140.26 18.8907 139.913 19.3333 139.39 19.664C138.868 19.9947 138.276 20.16 137.614 20.16ZM138.174 18.624C138.804 18.624 139.31 18.4053 139.694 17.968C140.078 17.52 140.27 16.848 140.27 15.952C140.27 15.056 140.078 14.3893 139.694 13.952C139.31 13.5147 138.804 13.296 138.174 13.296C137.545 13.296 137.038 13.5147 136.654 13.952C136.27 14.3893 136.078 15.056 136.078 15.952C136.078 16.848 136.265 17.52 136.638 17.968C137.022 18.4053 137.534 18.624 138.174 18.624ZM148.302 20.16C147.598 20.16 146.974 19.9947 146.43 19.664C145.897 19.3227 145.481 18.8373 145.182 18.208C144.883 17.5787 144.734 16.8267 144.734 15.952C144.734 15.0773 144.883 14.3307 145.182 13.712C145.481 13.0827 145.897 12.6027 146.43 12.272C146.974 11.9307 147.598 11.76 148.302 11.76C148.974 11.76 149.566 11.9253 150.078 12.256C150.601 12.576 150.947 13.0133 151.118 13.568H150.91V8.224H152.91V20H150.942V18.288H151.134C150.963 18.864 150.617 19.3227 150.094 19.664C149.582 19.9947 148.985 20.16 148.302 20.16ZM148.862 18.624C149.491 18.624 149.998 18.4053 150.382 17.968C150.766 17.52 150.958 16.848 150.958 15.952C150.958 15.056 150.766 14.3893 150.382 13.952C149.998 13.5147 149.491 13.296 148.862 13.296C148.233 13.296 147.721 13.5147 147.326 13.952C146.942 14.3893 146.75 15.056 146.75 15.952C146.75 16.848 146.942 17.52 147.326 17.968C147.721 18.4053 148.233 18.624 148.862 18.624Z" fill="#1D4ED8"/>
</svg>
