<svg width="14" height="14" viewBox="0 0 14 14" fill="none" xmlns="http://www.w3.org/2000/svg">
<path fill-rule="evenodd" clip-rule="evenodd" d="M6.12583 7.00007C6.12583 7.68207 5.57316 8.23473 4.89116 8.23473C4.20916 8.23473 3.65649 7.68207 3.65649 7.00007C3.65649 6.31807 4.20916 5.7654 4.89116 5.7654H4.89316C5.57449 5.76607 6.12583 6.31873 6.12583 7.00007Z" stroke="#4F5665" stroke-linecap="round" stroke-linejoin="round"/>
<path d="M6.12787 7.00007H10.3399V8.23473" stroke="#4F5665" stroke-linecap="round" stroke-linejoin="round"/>
<path d="M8.45467 8.23473V7.00007" stroke="#4F5665" stroke-linecap="round" stroke-linejoin="round"/>
<path fill-rule="evenodd" clip-rule="evenodd" d="M0.833252 7.00007C0.833252 2.3754 2.37525 0.8334 6.99992 0.8334C11.6246 0.8334 13.1666 2.3754 13.1666 7.00007C13.1666 11.6247 11.6246 13.1667 6.99992 13.1667C2.37525 13.1667 0.833252 11.6247 0.833252 7.00007Z" stroke="#4F5665" stroke-linecap="round" stroke-linejoin="round"/>
</svg>
